<?xml version="1.0" encoding="UTF-8" standalone="yes"?>
<!DOCTYPE svg PUBLIC "-//W3C//DTD SVG 1.1//EN" "http://www.w3.org/Graphics/SVG/1.1/DTD/svg11.dtd">

<svg width="500" height="500" viewBox="0 0 500 500" xmlns="http://www.w3.org/2000/svg" xmlns:xlink="http://www.w3.org/1999/xlink" version="1.1" baseProfile="full">
    <g transform="scale(1,-1) translate(0,-500)">
        <rect width="500" height="500" style="fill:rgb(63,163,63)"></rect>
        <path d="M 127.639767 39.727904 C 106.850701 40.086955 96.208423 50.172704 90.797521 67.572327 C 86.259114 82.218027 84.065311 97.650048 80.690229 112.690705 C 77.864496 125.368803 81.311388 132.941194 94.531654 138.370049 C 116.800012 147.486360 134.249902 163.137402 147.495303 185.944337 C 125.499824 171.607421 78.729809 136.391678 78.000938 145.619293 C 78.000938 177.284022 95.867327 214.237574 105.529396 245.047758 C 54.483082 175.108169 41.898336 128.553587 78.841117 47.027410 C 70.410594 49.091955 66.486164 45.404498 64.371352 47.271565 C 44.174720 65.102049 23.504141 43.709777 2.768934 28.963543 C 0.162222 27.118019 0.970087 14.658942 1.914392 14.461463 C 22.286958 9.721987 42.756469 4.314676 63.480904 2.616363 C 85.156828 0.824697 107.252840 1.216063 128.846180 3.600163 C 146.809513 5.564174 164.280948 11.829618 184.653514 16.820429 C 167.648838 40.970223 146.342744 39.447833 127.639767 39.727904 Z" transform="scale(1.000000,1.000000) translate(150.000000,61.000000)" fill="#ffffff" opacity="1.000000"></path>
        <path d="M 19.363603 45.510368 C 8.035537 38.893054 1.328461 28.211281 1.547481 18.804137 C 1.597749 15.903003 25.629047 26.739169 27.079615 24.276078 C 28.824604 21.288772 8.132481 5.407935 11.281360 3.881969 C 19.338470 -0.035280 31.133302 0.909024 41.800715 7.102658 C 56.568492 15.737840 69.006027 48.741830 69.006027 48.741830 C 69.006027 48.741830 34.156524 54.131178 19.363603 45.510368 Z" transform="scale(1.000000,1.000000) translate(293.000000,232.000000)" fill="#ffffff" opacity="1.000000"></path>
        <path d="M 8.809529 3.238479 C 14.845180 0.319393 23.677839 1.026724 31.663139 5.665666 C 42.721916 12.121407 52.035705 36.845675 52.035705 36.845675 C 52.035705 36.845675 25.936271 40.888592 14.855951 34.443622 C 6.378752 29.459991 1.337672 21.474691 1.510017 14.426516 C 1.560284 12.247075 19.548752 20.372405 20.629494 18.512519 C 21.936435 16.275618 6.425423 4.394619 8.809529 3.238479 Z" transform="scale(1.000000,1.000000) translate(288.000000,293.000000)" fill="#ffffff" opacity="1.000000"></path>
        <path d="M 12.029935 26.856698 C 5.617280 23.097431 1.832880 17.058189 1.954958 11.737051 C 1.980091 10.085415 15.566589 16.214419 16.392407 14.814120 C 17.372617 13.130169 5.642414 4.135936 7.448441 3.277803 C 12.019164 1.066048 18.690336 1.593853 24.725986 5.116146 C 33.081108 9.988471 40.122103 28.669906 40.122103 28.669906 C 40.122103 28.669906 20.410190 31.739790 12.029935 26.856698 Z" transform="scale(1.000000,1.000000) translate(337.000000,297.000000)" fill="#ffffff" opacity="1.000000"></path>
        <path d="M 1.880125 12.293606 C 1.359501 11.334939 11.021569 10.415768 11.046703 9.356567 C 11.046703 8.078344 1.539026 6.796532 2.275081 5.726559 C 4.120604 3.004950 8.073758 1.155837 12.619347 1.177380 C 18.913515 1.245599 28.887959 9.507368 28.887959 9.507368 C 28.887959 9.507368 18.762699 17.629107 12.468537 17.564473 C 7.632116 17.514206 3.524580 15.309637 1.880125 12.293606 Z" transform="scale(1.000000,1.000000) translate(366.000000,254.000000)" fill="#ffffff" opacity="1.000000"></path>
        <path d="M 11.403303 19.166156 C 6.268871 18.200308 2.337259 15.116058 1.155981 11.565041 C 0.782567 10.459163 11.230958 11.299343 11.449980 10.168332 C 11.694135 8.836252 1.816635 5.665830 2.789664 4.656896 C 5.270708 2.125584 9.830659 0.872496 14.634765 1.773714 C 21.305937 3.023213 30.386342 13.687034 30.386342 13.687034 C 30.386342 13.687034 18.092451 20.422830 11.403303 19.166156 Z" transform="scale(1.000000,1.000000) translate(381.000000,289.000000)" fill="#ffffff" opacity="1.000000"></path>
        <path d="M 6.965350 3.212853 C 11.521711 0.983145 18.203654 1.521721 24.246487 5.044014 C 32.601609 9.927111 39.628241 28.612137 39.628241 28.612137 C 39.628241 28.612137 19.923510 31.671254 11.543254 26.791747 C 5.127009 23.025300 1.342608 16.989649 1.471867 11.668510 C 1.497000 10.024055 15.079908 16.149469 15.912907 14.752760 C 16.900292 13.061628 5.180860 4.078170 6.965350 3.212853 Z" transform="scale(1.000000,1.000000) translate(256.000000,262.000000)" fill="#ffffff" opacity="1.000000"></path>
        <path d="M 2.506149 7.485938 C 3.048316 5.938427 14.056827 15.988271 15.288373 14.893165 C 16.760483 13.611352 8.380227 1.432334 10.347827 1.180998 C 15.385316 0.462896 21.578950 3.030112 26.225073 8.265079 C 32.662861 15.471237 33.571261 35.402172 33.571261 35.402172 C 33.571261 35.402172 13.862939 32.242521 7.425150 25.011229 C 2.481029 19.435167 0.739628 12.516249 2.506149 7.485938 Z" transform="scale(1.000000,1.000000) translate(293.000000,338.000000)" fill="#ffffff" opacity="1.000000"></path>
        <path d="M 14.600404 14.896759 C 16.047381 13.614946 7.692258 1.435928 9.659859 1.184593 C 14.682986 0.466490 20.890982 3.033706 25.537104 8.268674 C 31.949759 15.474832 32.858159 35.405766 32.858159 35.405766 C 32.858159 35.405766 13.149838 32.235344 6.712048 25.004052 C 1.796637 19.438758 0.055238 12.509069 1.796637 7.475171 C 2.335213 5.938428 13.368850 15.988271 14.600404 14.896759 Z" transform="scale(1.000000,1.000000) translate(345.000000,338.000000)" fill="#ffffff" opacity="1.000000"></path>
        <path d="M 14.489957 15.257961 C 15.962067 13.961786 7.581811 1.797130 9.538640 1.520661 C 14.572539 0.813330 20.780535 3.394908 25.426658 8.604742 C 31.864447 15.821672 32.772846 35.763378 32.772846 35.763378 C 32.772846 35.763378 13.064525 32.592955 6.626735 25.361663 C 1.675419 19.807140 -0.055208 12.877452 1.711324 7.847145 C 2.253487 6.313998 13.261991 16.353068 14.489957 15.257961 Z" transform="scale(1.000000,1.000000) translate(282.000000,372.000000)" fill="#ffffff" opacity="1.000000"></path>
        <path d="M 13.484562 1.610085 C 15.477296 0.629875 16.629851 20.596715 18.794930 20.704429 C 21.423185 20.844459 24.798267 1.301301 26.959755 2.917031 C 32.417333 6.941996 35.953988 15.236079 35.487221 24.592955 C 34.923500 37.533161 17.100208 57.500000 17.100208 57.500000 C 17.100208 57.500000 1.165514 35.971289 1.786673 22.984405 C 2.260609 13.031504 7.107809 4.766145 13.484562 1.610085 Z" transform="scale(1.000000,1.000000) translate(241.000000,380.000000)" fill="#ffffff" opacity="1.000000"></path>
        <path d="M 13.515620 1.168393 C 15.138531 0.773436 12.747250 15.494537 14.319894 15.925399 C 16.183370 16.442433 21.816884 2.776943 23.084335 4.270596 C 26.455826 8.123215 27.655057 14.690262 25.866982 21.436836 C 23.335671 30.768577 7.142460 42.448515 7.142460 42.448515 C 7.142460 42.448515 -0.972098 24.212302 1.569984 14.869789 C 3.508866 7.688763 8.356053 2.443023 13.515620 1.168393 Z" transform="scale(1.000000,1.000000) translate(228.000000,339.000000)" fill="#ffffff" opacity="1.000000"></path>
        <path d="M 21.420569 2.393348 C 28.454383 -0.008705 35.502558 1.086401 39.462894 4.655371 C 40.672897 5.768429 27.133075 12.019512 27.660880 13.563432 C 28.282039 15.412545 42.751804 12.432420 42.209636 14.342573 C 40.927824 19.265165 36.145261 23.968736 29.549490 26.212806 C 20.375731 29.358095 1.654799 22.435587 1.654799 22.435587 C 1.654799 22.435587 12.257582 5.513501 21.420569 2.393348 Z" transform="scale(1.000000,1.000000) translate(133.000000,325.000000)" fill="#ffffff" opacity="1.000000"></path>
        <path d="M 21.372246 2.884485 C 28.406060 0.493204 35.447055 1.577539 39.414571 5.150098 C 40.606621 6.255976 27.095523 12.510648 27.612557 14.068931 C 28.226535 15.918044 42.696300 12.912786 42.179266 14.837300 C 40.857958 19.745531 36.089757 24.438330 29.511938 26.700353 C 20.338179 29.834870 1.613658 22.926724 1.613658 22.926724 C 1.613658 22.926724 12.187717 6.008234 21.372246 2.884485 Z" transform="scale(1.000000,1.000000) translate(87.000000,343.000000)" fill="#ffffff" opacity="1.000000"></path>
        <path d="M 42.903532 9.471876 C 43.697035 10.929624 28.853857 12.355057 28.853857 13.999512 C 28.803590 15.952751 43.474423 17.913171 42.339821 19.521720 C 39.481773 23.722619 33.420989 26.595029 26.441033 26.544762 C 16.753831 26.483723 1.350533 13.769719 1.350533 13.769719 C 1.350533 13.769719 16.926175 1.299869 26.613377 1.371679 C 34.063691 1.450681 40.354271 4.789858 42.903532 9.471876 Z" transform="scale(1.000000,1.000000) translate(111.000000,244.000000)" fill="#ffffff" opacity="1.000000"></path>
        <path d="M 43.042657 9.432107 C 43.836161 10.861131 28.985802 12.308108 28.964258 13.934610 C 28.939125 15.891439 43.584825 17.848268 42.453813 19.456818 C 39.595765 23.682851 33.556524 26.540899 26.572978 26.490631 C 16.885776 26.422412 1.482478 13.715588 1.482478 13.715588 C 1.482478 13.715588 17.061712 1.242148 26.752504 1.335502 C 34.174094 1.389354 40.489801 4.750076 43.042657 9.432107 Z" transform="scale(1.000000,1.000000) translate(90.000000,293.000000)" fill="#ffffff" opacity="1.000000"></path>
        <path d="M 21.421728 1.181738 C 23.066183 1.321768 16.035960 14.455862 17.389583 15.385805 C 18.987361 16.509636 28.742782 5.382638 29.457295 7.231752 C 31.399762 11.949685 30.390828 18.570590 26.487941 24.358496 C 21.051905 32.368929 1.961152 38.110158 1.961152 38.110158 C 1.961152 38.110158 0.216163 18.240263 5.677332 10.240601 C 9.817191 4.075690 16.107771 0.675473 21.421728 1.181738 Z" transform="scale(1.000000,1.000000) translate(148.000000,363.000000)" fill="#ffffff" opacity="1.000000"></path>
        <path d="M 21.667618 1.181738 C 23.319254 1.321768 16.285440 14.455862 17.642653 15.385805 C 19.240431 16.509636 28.988673 5.382638 29.706775 7.231752 C 31.616927 11.949685 30.640308 18.570590 26.741011 24.358496 C 21.304976 32.368929 2.214222 38.110158 2.214222 38.110158 C 2.214222 38.110158 0.469233 18.240263 5.923221 10.240601 C 10.070251 4.075690 16.360838 0.675473 21.667618 1.181738 Z" transform="scale(1.000000,1.000000) translate(192.000000,363.000000)" fill="#ffffff" opacity="1.000000"></path>
        <path d="M 2.462930 26.805832 C 0.664083 17.136582 3.471864 8.084900 8.904309 3.618303 C 10.581078 2.235956 16.171506 21.157957 18.282727 20.770180 C 20.814038 20.292642 19.708160 0.774618 22.128166 1.830227 C 28.285894 4.483616 33.520862 11.635916 35.226355 20.727094 C 37.596093 33.297477 24.928765 56.502958 24.928765 56.502958 C 24.928765 56.502958 4.818299 39.401354 2.462930 26.805832 Z" transform="scale(1.000000,1.000000) translate(254.000000,311.000000)" fill="#ffffff" opacity="1.000000"></path>
        <path d="M 7.075604 13.496056 C 12.802471 5.492804 21.254537 1.202142 28.241674 2.020778 C 30.378029 2.257752 20.640559 19.449125 22.417863 20.691442 C 24.500360 22.188685 37.778074 7.833817 38.711608 10.314861 C 41.077756 16.583895 39.541017 25.312431 34.191154 32.848916 C 26.769565 43.261402 1.316422 50.273673 1.316422 50.273673 C 1.316422 50.273673 -0.356756 23.930085 7.075604 13.496056 Z" transform="scale(1.000000,1.000000) translate(196.000000,305.000000)" fill="#ffffff" opacity="1.000000"></path>
        <path d="M 41.898928 2.044022 C 54.505216 0.636541 65.933816 5.042099 71.165194 12.463688 C 72.813239 14.732892 47.913037 20.219195 48.211048 22.983890 C 48.573690 26.308704 73.818582 26.646212 72.245937 29.665833 C 68.271240 37.342348 58.558904 43.428266 46.688670 44.778300 C 30.297981 46.641775 1.591834 28.215267 1.591834 28.215267 C 1.591834 28.215267 25.475927 3.900310 41.898928 2.044022 Z" transform="scale(1.000000,1.000000) translate(136.000000,265.000000)" fill="#ffffff" opacity="1.000000"></path>
        <path d="M 49.274659 20.515228 C 46.574594 25.743014 39.986004 29.857741 31.925304 30.784093 C 20.762401 32.055134 1.251556 19.502703 1.251556 19.502703 C 1.251556 19.502703 17.466309 2.986347 28.654346 1.736849 C 37.210537 0.763820 44.969635 3.754716 48.535014 8.817339 C 49.640892 10.354078 32.733169 14.098982 32.930646 15.966049 C 33.164032 18.213700 50.330278 18.450681 49.274659 20.515228 Z" transform="scale(1.000000,1.000000) translate(159.000000,227.000000)" fill="#ffffff" opacity="1.000000"></path>
    </g>
</svg>